<?xml version="1.0" encoding="UTF-8" standalone="no"?>
<!-- Created with Inkscape (http://www.inkscape.org/) -->

<svg
   width="124.9599mm"
   height="35.742092mm"
   viewBox="0 0 472.28939 135.08823"
   version="1.1"
   id="svg1"
   xml:space="preserve"
   xmlns="http://www.w3.org/2000/svg"
   xmlns:svg="http://www.w3.org/2000/svg"><defs
     id="defs1"><mask
       maskUnits="userSpaceOnUse"
       id="mask-powermask-path-effect2-8"><path
         id="mask-powermask-path-effect2-8_box"
         style="fill:#ffffff;fill-opacity:1"
         d="m 51.68905,322.88491 h 124.9649 V 448.54257 H 51.68905 Z" /><path
         id="path9"
         style="fill:#ffffff;fill-opacity:1"
         d="m 51.68905,322.88491 h 124.9649 V 448.54257 H 51.68905 Z" /><path
         style="fill:#000000;stroke-width:0.750871"
         d="m 88.472042,323.50841 c 0,0 -2.909737,12.29476 -2.701511,21.22918 0.157514,6.75849 4.110796,6.93687 4.110796,6.93687 0,0 4.971281,-7.53999 12.165923,-9.64347 11.03054,-3.22498 18.89763,1.90603 24.45669,9.68556 4.06844,3.55906 17.11811,-0.22047 17.11811,-0.22047 0,0 -9.90122,24.05213 -30.11193,24.05213 -20.210688,0 -23.628793,-13.91583 -23.628793,-13.91583 0,0 -12.221591,-3.40101 -12.221591,-22.85269 0,-11.91583 -2.705023,-15.27128 -2.705023,-15.27128"
         id="path10" /></mask></defs><g
     id="text2-5"
     style="font-size:173.19px;fill:#000000;stroke-width:14.4325"
     aria-label="Relife"
     transform="translate(-52.688538,-314.18659)"><path
       id="text4-92"
       mask="url(#mask-powermask-path-effect2-8)"
       style="-inkscape-font-specification:'Noto Serif Ultra-Bold';stroke-width:24.3081"
       d="m 52.688536,323.88487 v 9.87109 h 6.927735 c 1.962818,0 3.984222,0.63619 6.0625,1.90625 2.078278,1.1546 3.117188,3.92503 3.117188,8.3125 v 83.6504 c 0,4.38747 -0.982495,7.15985 -2.945313,8.31445 -1.962818,1.1546 -4.040637,1.73047 -6.234375,1.73047 h -6.927735 v 9.87305 h 61.656254 v -9.87305 h -5.54297 c -2.54012,0 -4.61794,-0.57587 -6.23438,-1.73047 -1.61643,-1.1546 -2.42382,-3.92698 -2.42382,-8.31445 v -33.42579 h 10.21679 l 19.22461,37.75586 c 3.34834,6.46576 8.14017,10.67976 14.375,12.64258 6.23484,1.96282 14.43328,2.94532 24.59375,2.94532 h 7.09961 v -9.87305 h -1.03906 c -3.00196,0 -5.71401,-1.15369 -8.13867,-3.46289 -2.42466,-2.3092 -5.19704,-6.06212 -8.31445,-11.25782 l -20.08985,-34.46484 c 4.15656,-1.27006 8.08263,-3.17473 11.77734,-5.71484 3.69472,-2.65558 6.6383,-6.11861 8.83204,-10.39063 2.30919,-4.27201 3.46484,-9.64167 3.46484,-16.10742 0,-10.04501 -3.81129,-17.95357 -11.43164,-23.72656 -7.62035,-5.773 -20.43553,-8.66016 -38.44727,-8.66016 z" /><path
       style="stroke-width:8.98267"
       d="m 92.12687,356.88163 c -0.312547,-0.3912 0.791158,-2.26216 3.999848,-3.61543 1.340375,-0.55687 2.986376,-0.92614 4.849762,-0.91283 0,0 0,0 0,0 3.08059,0.0408 6.0493,0.9196 9.22616,2.22242 0.044,0.018 0.0879,0.0361 0.13161,0.0541 3.70161,1.48387 5.49311,2.46117 8.41993,3.35064 2.43956,0.73326 4.34204,0.88452 5.87852,0.87879 1.46387,-0.005 2.38103,-0.11919 2.51824,0.19576 0.19545,0.44863 -2.8962,3.24032 -9.14568,2.07503 -3.08948,-0.56097 -5.78204,-1.66421 -9.08109,-3.00011 -0.003,-10e-4 -0.12607,-0.0496 -0.12916,-0.0508 -3.16139,-1.24334 -5.48242,-2.15616 -8.00441,-2.43502 0,0 0,0 0,0 -1.461023,-0.17473 -2.763495,-0.11081 -3.902179,0.0953 -2.733025,0.4766 -4.449004,1.53331 -4.761551,1.14211 z"
       id="path5-2" /><path
       style="-inkscape-font-specification:'Noto Serif'"
       d="m 225.01312,449.27481 q -18.87771,0 -29.61549,-12.46968 -10.56459,-12.46968 -10.56459,-34.98438 0,-24.2466 10.04502,-36.54309 10.04502,-12.29649 28.40316,-12.29649 16.79943,0 26.32488,10.3914 9.69864,10.3914 9.69864,31.00101 v 7.96674 h -57.67227 q 0.34638,18.87771 6.75441,27.53721 6.58122,8.48631 19.0509,8.48631 9.00588,0 15.24072,-3.63699 6.40803,-3.81018 9.52545,-8.48631 1.21233,0.51957 2.25147,2.07828 1.03914,1.55871 1.03914,3.81018 0,3.4638 -3.29061,7.44717 -3.29061,3.98337 -10.04502,6.9276 -6.75441,2.77104 -17.14581,2.77104 z m 16.79943,-56.28675 q 0,-13.8552 -4.32975,-22.16832 -4.15656,-8.48631 -14.54796,-8.48631 -9.52545,0 -14.89434,7.96674 -5.1957,7.79355 -6.06165,22.68789 z m 28.40313,54.55485 v -7.27398 h 2.25147 q 5.88846,0 10.04502,-2.07828 4.15656,-2.25147 4.15656,-10.3914 v -92.82984 q 0,-7.62036 -4.32975,-9.69864 -4.15656,-2.07828 -9.87183,-2.07828 h -2.25147 v -7.27398 h 32.73291 v 111.88074 q 0,8.13993 4.15656,10.3914 4.15656,2.07828 10.04502,2.07828 h 2.25147 v 7.27398 z m 79.32093,-110.14884 q -4.15656,0 -7.10079,-2.42466 -2.77104,-2.42466 -2.77104,-8.31312 0,-6.06165 2.77104,-8.31312 2.94423,-2.42466 7.10079,-2.42466 3.98337,0 6.9276,2.42466 2.94423,2.25147 2.94423,8.31312 0,5.88846 -2.94423,8.31312 -2.94423,2.42466 -6.9276,2.42466 z m -23.90022,110.14884 v -7.27398 h 2.25147 q 5.71527,0 9.87183,-1.90509 4.32975,-2.07828 4.32975,-9.69864 v -54.90123 q 0,-7.62036 -4.32975,-9.69864 -4.15656,-2.07828 -9.87183,-2.07828 h -0.51957 v -7.27398 h 31.00101 v 73.08618 q 0,8.13993 4.15656,10.3914 4.15656,2.07828 10.04502,2.07828 h 2.25147 v 7.27398 z m 56.11351,0 v -7.27398 h 2.25147 q 5.88846,0 10.04502,-2.07828 4.15656,-2.25147 4.15656,-10.3914 V 362.853 h -15.76029 v -8.13993 h 15.76029 v -8.6595 q 0,-15.41391 8.13993,-23.55384 8.31312,-8.31312 22.5147,-8.31312 13.50882,0 18.87771,3.4638 5.36889,3.29061 5.36889,8.6595 0,4.67613 -3.98337,7.27398 -3.98337,2.42466 -10.21821,2.42466 0,-5.1957 -2.42466,-9.52545 -2.42466,-4.32975 -9.00588,-4.32975 -7.44717,0 -10.21821,5.71527 -2.77104,5.71527 -2.77104,16.62624 v 10.21821 h 24.41979 v 8.13993 h -24.41979 v 64.94625 q 0,8.13993 4.15656,10.3914 4.15656,2.07828 10.04502,2.07828 h 6.58122 v 7.27398 z m 108.93641,1.7319 q -18.87771,0 -29.61549,-12.46968 -10.56459,-12.46968 -10.56459,-34.98438 0,-24.2466 10.04502,-36.54309 10.04502,-12.29649 28.40316,-12.29649 16.79943,0 26.32488,10.3914 9.69864,10.3914 9.69864,31.00101 v 7.96674 h -57.67227 q 0.34638,18.87771 6.75441,27.53721 6.58122,8.48631 19.0509,8.48631 9.00588,0 15.24072,-3.63699 6.40803,-3.81018 9.52545,-8.48631 1.21233,0.51957 2.25147,2.07828 1.03914,1.55871 1.03914,3.81018 0,3.4638 -3.29061,7.44717 -3.29061,3.98337 -10.04502,6.9276 -6.75441,2.77104 -17.14581,2.77104 z m 16.79943,-56.28675 q 0,-13.8552 -4.32975,-22.16832 -4.15656,-8.48631 -14.54796,-8.48631 -9.52545,0 -14.89434,7.96674 -5.1957,7.79355 -6.06165,22.68789 z"
       id="path6-8" /></g></svg>
